<?xml version="1.0" ?><!DOCTYPE svg  PUBLIC '-//W3C//DTD SVG 1.1//EN'  'http://www.w3.org/Graphics/SVG/1.1/DTD/svg11.dtd'><svg enable-background="new 0 0 91 91" height="91px" id="Layer_1" version="1.1" viewBox="0 0 91 91" width="91px" xml:space="preserve" xmlns="http://www.w3.org/2000/svg" xmlns:xlink="http://www.w3.org/1999/xlink"><g><path d="M87.31,34.913c0,11.732-9.511,21.244-21.241,21.244c-11.732,0-21.243-9.512-21.243-21.244   c0-11.733,9.511-21.244,21.243-21.244c7.705,0,14.192,3.691,17.918,9.83c0,0-20.231,22.258-19.88,22.953   c1.962,3.859,20.973-16.225,21.175-15.671C86.116,33.062,87.31,32.34,87.31,34.913z" fill="#9AE0FF"/><path d="M43.276,34.697c0,8.875,5.152,16.569,12.622,20.25c-0.046,0.912-0.072,1.842-0.066,2.779   c0.005,12.012-2.306,17.686-3.679,19.994c-1.938,3.225-2.555,3.393-4.061,3.393c-0.029,0-0.785-0.01-1.421-0.703   c-0.797-0.869-1.116-2.477-0.929-4.646c0.459-5.219-0.222-11.379-1.864-16.902c-0.728-2.393-1.607-4.939-3.121-7.377   c-1.969-3.168-4.428-3.863-6.143-3.893c-3.003-0.027-5.696,1.91-6.995,3.869c-1.625,2.453-2.441,5.115-3.098,7.258l-0.045,0.148   c-1.63,5.506-1.716,10.74-1.782,14.943c-0.027,1.764-0.052,3.285-0.185,4.615c-0.002,0.029-0.227,2.686-2.244,2.686   c-1.675,0-2.098-0.113-4.063-3.389c-1.377-2.314-3.688-7.99-3.675-19.988c0.064-9.324-2.41-14.393-4.941-18.769l-0.323-0.588   c-1.998-3.6-3.576-6.44-3.64-13.719c0-0.205,0.006-0.422,0.01-0.648l0.008-0.559c0.178-4.756,1.825-7.961,5.343-10.385   c2.306-1.561,5.431-2.6,8.94-3.001l5.9-0.082c3.297,0.269,6.492,1.015,8.774,2.056l1.135,0.502l8.019,4.254   c0.149,0.078,0.311,0.117,0.468,0.117c0.354,0,0.701-0.191,0.882-0.529c0.256-0.487,0.07-1.089-0.414-1.349l-6.206-3.294   c2.902-1.162,6.724-1.853,10.438-1.853c0.063,0,0.122,0,0.181,0c4.81,0,9.278,1.155,12.267,3.167   c0.012,0.008,0.02,0.016,0.03,0.023C50.086,15.857,43.276,24.496,43.276,34.697z" fill="#F4F2E8"/><path d="M55.063,29.924c-0.398-0.24-0.915-0.173-1.237,0.167c-0.324,0.34-0.368,0.856-0.104,1.245l9.979,14.75   c0.175,0.258,0.459,0.42,0.771,0.436c0.019,0.002,0.036,0.002,0.055,0.002c0.292,0,0.572-0.127,0.762-0.352L90.31,16.674   c0.334-0.395,0.311-0.977-0.05-1.343c-0.361-0.369-0.944-0.4-1.341-0.073l-4.995,4.089c-4.453-5.167-10.99-8.208-17.853-8.208   c-1.135,0-2.25,0.085-3.343,0.241c-0.408-0.34-0.837-0.677-1.309-1.003c-3.572-2.405-8.576-3.729-14.089-3.729   c-0.059,0-0.111,0-0.17,0c-4.465,0-9.135,0.909-12.481,2.431l-0.271,0.117l-0.245-0.107c-2.636-1.202-6.131-2.031-9.844-2.333   C24.252,6.75,24.188,6.75,24.11,6.75l-5.998,0.079c-0.075,0-0.149,0.006-0.223,0.013c-4.12,0.465-7.747,1.69-10.509,3.557   c-4.386,3.026-6.529,7.135-6.745,12.989l-0.008,0.497c-0.005,0.272-0.011,0.532-0.011,0.794c0.068,8.104,1.91,11.425,4.042,15.266   l0.348,0.626c2.317,4.01,4.574,8.637,4.514,17.155c-0.01,12.146,2.241,18.482,4.137,21.664c2.067,3.451,3.342,4.963,6.838,4.963   c3.312,0,5.263-2.857,5.471-5.629c0.144-1.441,0.17-3.102,0.197-4.859c0.065-4.008,0.145-8.994,1.643-14.053l0.04-0.135   c0.63-2.045,1.339-4.363,2.705-6.426c0.803-1.209,2.493-2.418,4.193-2.418c0.018,0,0.036,0,0.054,0   c1.321,0.02,2.479,0.814,3.439,2.363c1.318,2.121,2.115,4.432,2.772,6.598c1.509,5.064,2.157,10.93,1.74,15.689   c-0.276,3.143,0.318,5.537,1.767,7.117c1.491,1.627,3.295,1.752,3.811,1.752c3.301,0,4.775-1.531,6.835-4.971   c1.891-3.174,4.145-9.508,4.14-21.668c-0.001-0.151,0.004-0.299,0.005-0.45c2.144,0.645,4.414,0.995,6.765,0.995   c12.988,0,23.556-10.57,23.555-23.561c0-1.613-0.164-3.224-0.486-4.784l-3.902,0.806c0.267,1.297,0.402,2.636,0.402,3.979   c0,10.794-8.777,19.575-19.568,19.575c-10.794,0-19.574-8.781-19.574-19.575c0-10.792,8.78-19.57,19.574-19.57   c5.668,0,11.068,2.499,14.769,6.746L64.232,35.467L55.063,29.924z M42.51,34.696c0,8.936,5.002,16.726,12.352,20.719   c-0.03,0.762-0.049,1.533-0.044,2.313c0.006,11.711-2.193,17.154-3.505,19.352c-1.67,2.787-1.975,2.787-2.944,2.787   c-0.055-0.004-0.329-0.039-0.581-0.338c-0.242-0.287-0.785-1.219-0.571-3.658c0.472-5.371-0.224-11.699-1.912-17.373   c-0.752-2.471-1.667-5.109-3.258-7.672c-1.768-2.846-4.318-4.438-7.184-4.479c-0.039-0.002-0.079-0.002-0.119-0.002   c-3.45,0-6.46,2.211-7.93,4.426c-1.727,2.605-2.572,5.369-3.255,7.588l-0.048,0.156c-1.677,5.666-1.763,10.994-1.832,15.275   c-0.025,1.732-0.051,3.232-0.179,4.543c-0.002,0.016-0.169,1.533-1.005,1.533c-1.197,0-1.322,0-2.989-2.779   c-1.312-2.205-3.51-7.65-3.503-19.346c0.071-9.629-2.604-15.072-5.094-19.379L8.58,37.767C6.594,34.19,5.159,31.603,5.1,24.658   c0-0.214,0.006-0.444,0.011-0.686l0.009-0.474C5.28,19.114,6.718,16.301,9.91,14.1c2.124-1.436,5.016-2.4,8.374-2.792l5.775-0.075   c3.124,0.264,6.123,0.967,8.268,1.945l1.104,0.488l7.97,4.227c0.337,0.178,0.694,0.262,1.049,0.262c0.805,0,1.58-0.432,1.983-1.191   c0.579-1.094,0.163-2.45-0.932-3.031l-3.598-1.908c2.255-0.565,4.815-0.891,7.271-0.891c0.048,0,0.097,0,0.144,0   c3.594,0,6.959,0.672,9.586,1.863C48.453,16.578,42.51,24.957,42.51,34.696z" fill="#3B6A75"/><path d="M14.525,35.698c-0.922,0-1.812-0.516-2.242-1.399c-2.634-5.406-2.5-13.229,4.021-17.63   c1.14-0.771,2.688-0.471,3.458,0.672c0.771,1.14,0.471,2.688-0.67,3.458c-4.078,2.752-4.108,7.667-2.331,11.316   c0.604,1.235,0.091,2.729-1.147,3.331C15.263,35.616,14.892,35.698,14.525,35.698z" fill="#FFFFFF"/></g></svg>