<?xml version="1.0" encoding="utf-8"?><svg version="1.1" id="Layer_1" xmlns="http://www.w3.org/2000/svg" xmlns:xlink="http://www.w3.org/1999/xlink" x="0px" y="0px" viewBox="0 0 122.88 119.96" style="enable-background:new 0 0 122.88 119.96" xml:space="preserve"><style type="text/css">.st0{fill-rule:evenodd;clip-rule:evenodd;}</style><g><path class="st0" d="M51.6,56.3c-0.51-0.12-0.82-0.64-0.7-1.15c0.12-0.51,0.64-0.82,1.15-0.7c1.66,0.41,3.32,0.62,4.97,0.62 c1.65,0,3.3-0.2,4.96-0.62c0.51-0.13,1.03,0.18,1.15,0.69c0.13,0.51-0.18,1.03-0.69,1.15c-1.8,0.46-3.61,0.68-5.42,0.67 C55.21,56.96,53.4,56.74,51.6,56.3L51.6,56.3z M105.51,94.12c-0.7,0.37-1.34,0.44-1.94,0.33c-0.7-0.12-1.32-0.45-1.95-0.78 c-0.52-0.28-1.04-0.55-1.55-0.61c-0.49-0.05-1.02,0.1-1.6,0.66c-0.38,0.37-0.79,0.6-1.21,0.74c-0.47,0.15-0.95,0.17-1.43,0.1 c-0.42-0.06-0.84-0.19-1.23-0.37c-0.35-0.16-0.69-0.35-1.01-0.56c-0.08,0.2-0.17,0.41-0.27,0.61c-0.14,0.29-0.3,0.58-0.48,0.85 c-0.4,0.61-0.89,1.15-1.45,1.55c-0.52,0.37-1.1,0.63-1.73,0.71c-1.23,0.17-2.14-0.14-3.08-0.46h0c-1.14-0.39-2.42-0.49-3.64-0.27 c-1.13,0.2-2.21,0.68-3.07,1.45c-0.29,0.27-0.48,0.72-0.54,1.2c-0.06,0.49,0.01,1.01,0.22,1.39c0.02,0.03,0.03,0.05,0.05,0.06l0,0 c0,0,0.01,0.01,0.01,0.01v0c0.16,0,0.4-0.11,0.64-0.25c0.26-0.15,0.51-0.33,0.67-0.45c0.36-0.26,0.72-0.54,1.19-0.76 c0.47-0.23,1.04-0.41,1.79-0.48c0.27-0.02,0.54-0.03,0.79,0c0.26,0.02,0.51,0.07,0.75,0.14c0.24,0.07,0.48,0.17,0.71,0.3 c0.22,0.12,0.44,0.27,0.65,0.44c0.49,0.4,0.83,0.82,1.1,1.24c0.27,0.42,0.47,0.83,0.66,1.24c0.56,1.19,1.28,1.95,2.18,2.41 c0.92,0.46,2.05,0.61,3.43,0.58c1.06-0.03,2.15-0.2,3.17-0.47c1.1-0.29,2.12-0.7,2.92-1.14c0.06-0.04,0.14-0.08,0.22-0.13 l0.02-0.01c0.06-0.04,0.13-0.08,0.2-0.12c0.43-0.28,0.84-0.59,1.21-0.95c0.38-0.36,0.73-0.75,1.05-1.19 c0.33-0.45,0.63-0.94,0.91-1.49c0.28-0.55,0.54-1.14,0.78-1.79c0.14-0.39,0.27-0.79,0.38-1.2c0.11-0.41,0.21-0.83,0.3-1.27 c0.06-0.29,0.11-0.59,0.15-0.88C105.48,94.37,105.5,94.25,105.51,94.12L105.51,94.12z M93.98,92.26c0.32,0.23,0.66,0.45,1.02,0.62 c0.33,0.16,0.68,0.28,1.01,0.33c0.28,0.04,0.56,0.03,0.82-0.05c0.24-0.07,0.47-0.21,0.68-0.42c1.87-1.8,3.29-1.05,4.72-0.29 c0.01,0.01,0.03,0.01,0.04,0.02c0.47,0.25,0.94,0.5,1.41,0.59c0.45,0.09,0.93,0.03,1.43-0.31l0,0l0,0c0.05-0.03,0.1-0.07,0.14-0.11 l0,0l0,0c0.05-0.04,0.1-0.09,0.15-0.14c0.05-0.05,0.1-0.11,0.15-0.17c0.04-0.04,0.07-0.09,0.11-0.13c0.04-0.99,0-1.98-0.11-2.95 c-0.11-0.97-0.29-1.91-0.55-2.79c-0.4-1.36-0.98-2.58-1.74-3.55c-0.7-0.88-1.54-1.54-2.55-1.91l-0.01,0 c-0.11-0.04-0.23-0.08-0.35-0.11c-0.12-0.03-0.24-0.06-0.38-0.09c-0.42-0.08-0.83-0.11-1.24-0.09c-0.43,0.02-0.86,0.1-1.28,0.23 c-0.46,0.14-0.91,0.33-1.35,0.57c-0.47,0.25-0.94,0.56-1.39,0.91c-0.01,0.01-0.02,0.01-0.02,0.02c-0.02,0.01-0.04,0.02-0.06,0.03 c-0.03,0.02-0.06,0.03-0.08,0.04l-0.02,0.01c-0.17,0.06-0.35,0.05-0.5-0.02c-0.16-0.07-0.3-0.2-0.37-0.38l-0.01-0.02 c-0.18-0.47-0.34-0.93-0.47-1.4c-0.13-0.48-0.24-0.95-0.33-1.43c-0.07-0.39-0.12-0.79-0.16-1.2c-0.03-0.31-0.05-0.63-0.06-0.95 l-2.54,0.13l0.02,0.25c0.28,3.4,1.34,5.68,2.27,7.7l0,0c0.84,1.82,1.6,3.46,1.71,5.57c0.01,0.25,0.01,0.52-0.02,0.8 C94.06,91.8,94.03,92.03,93.98,92.26L93.98,92.26z M72.45,71.66c-1.6-1.63-2.79-3.37-3.98-5.1c-0.19-0.28-0.39-0.57-0.59-0.86 c-2.86,2.27-6.33,3.72-10.85,3.7c-4.88-0.01-8.55-1.88-11.56-4.63c-0.18-0.16-0.36-0.33-0.53-0.5c-0.43,1.2-0.98,2.63-1.57,3.97 c-0.56,1.27-1.16,2.47-1.74,3.34C47.9,84.3,66.44,84.74,72.45,71.66L72.45,71.66z M55.76,7.2h2.51c0.47,0,0.85,0.38,0.85,0.85v3.74 l3.74,0c0.47,0,0.85,0.38,0.85,0.85v2.51c0,0.47-0.38,0.85-0.85,0.85h-3.74v3.74c0,0.47-0.38,0.85-0.85,0.85h-2.51 c-0.47,0-0.85-0.38-0.85-0.85v-3.74h-3.74c-0.47,0-0.85-0.38-0.85-0.85v-2.51c0-0.47,0.38-0.85,0.85-0.85h3.74V8.05 C54.91,7.58,55.29,7.2,55.76,7.2L55.76,7.2L55.76,7.2z M94.32,62.84c7.89,0,15.03,3.2,20.19,8.36c5.17,5.17,8.37,12.31,8.37,20.19 c0,7.89-3.2,15.03-8.37,20.19c-5.17,5.17-12.31,8.36-20.19,8.36c-7.89,0-15.03-3.2-20.19-8.36c-2.3-2.3-4.22-5-5.63-7.98H6.24 c-3.92-0.3-5.91-2.32-6.24-5.83c0.95-6.93,1.18-8.34,5.39-13.9c1.49-1.97,3.35-3.43,5.41-4.58c6.3-3.51,22.88-4.62,29.28-9.51 c0.4-0.68,0.81-1.54,1.21-2.45c0.76-1.74,1.46-3.64,1.9-4.94c-1.86-2.19-3.45-4.65-4.97-7.08l-5.03-8 c-1.84-2.74-2.8-5.25-2.85-7.31c-0.03-0.97,0.14-1.85,0.49-2.62c0.38-0.81,0.95-1.49,1.73-2.01c0.36-0.25,0.77-0.45,1.22-0.62 c-0.33-4.34-0.45-9.81-0.24-14.38c0.11-1.09,0.32-2.17,0.62-3.26c7.88-28.14,45.66-18.13,47.32,5.1l-0.31,13.05v0 c1.39,0.42,2.29,1.31,2.65,2.74c0.4,1.59-0.03,3.82-1.38,6.87l0,0c-0.02,0.06-0.05,0.11-0.09,0.16l-5.73,9.44 c-2.11,3.47-4.24,6.95-7.03,9.69c0.25,0.36,0.5,0.73,0.75,1.09c0.94,1.37,1.88,2.75,3,4.02l0,0c0.46,0.41,0.98,0.79,1.56,1.16 C80.01,65.73,86.83,62.84,94.32,62.84L94.32,62.84z M110.91,74.81c-4.25-4.25-10.11-6.87-16.59-6.87c-6.48,0-12.34,2.63-16.59,6.87 c-4.25,4.24-6.87,10.11-6.87,16.59c0,6.48,2.63,12.34,6.87,16.59c4.24,4.25,10.11,6.87,16.59,6.87c12.96,0,23.46-10.5,23.46-23.46 C117.78,84.92,115.16,79.06,110.91,74.81L110.91,74.81z M63.02,39.76c-0.42-0.28-0.53-0.84-0.25-1.26 c0.28-0.42,0.84-0.53,1.26-0.25c0.5,0.33,1.35,0.51,2.26,0.49c0.86-0.01,1.72-0.2,2.34-0.6c0.42-0.27,0.98-0.14,1.25,0.28 c0.27,0.42,0.14,0.98-0.28,1.25c-0.91,0.58-2.12,0.86-3.28,0.88C65.06,40.58,63.82,40.3,63.02,39.76L63.02,39.76L63.02,39.76z M76.46,34.5c-0.03-0.98-0.38-1.93-1.01-2.82l-0.03-0.07l-0.01,0.02c-5.98-8.46-35.74-12.28-37.02,5.38l0.05,0.12l-2.2-0.18 l0.16,0.51l-0.15-0.34c-0.91,0.08-1.62,0.3-2.12,0.64c-0.33,0.22-0.57,0.5-0.73,0.84c-0.17,0.37-0.25,0.83-0.24,1.35 c0.04,1.53,0.85,3.53,2.4,5.84l0.02,0.03l5.03,8C53.34,74.01,64.9,68.34,74.2,53.02l5.67-9.33c1.06-2.41,1.44-4.02,1.2-4.97 c-0.14-0.56-0.77-0.84-1.82-0.89c-0.22-0.01-0.46-0.01-0.69-0.01c-0.25,0.01-0.52,0.02-0.79,0.05c-0.03,0-0.06,0-0.09,0.01 L76.46,34.5L76.46,34.5z M44.66,39.76c-0.42-0.28-0.53-0.84-0.25-1.26c0.28-0.42,0.84-0.53,1.26-0.25c0.51,0.34,1.37,0.53,2.3,0.53 c0.87,0,1.76-0.19,2.46-0.59c0.43-0.25,0.99-0.1,1.24,0.33c0.25,0.43,0.1,0.99-0.33,1.24c-0.98,0.57-2.2,0.82-3.36,0.83 C46.7,40.6,45.46,40.3,44.66,39.76L44.66,39.76L44.66,39.76z M44.29,35.72c-0.41,0.29-0.97,0.19-1.26-0.21 c-0.29-0.41-0.2-0.97,0.21-1.26c1.35-0.96,2.73-1.44,4.15-1.45c1.41-0.01,2.82,0.47,4.23,1.44c0.41,0.28,0.51,0.85,0.23,1.26 c-0.28,0.41-0.85,0.52-1.26,0.23c-1.1-0.76-2.16-1.13-3.2-1.12C46.37,34.6,45.33,34.98,44.29,35.72L44.29,35.72L44.29,35.72z M63.88,35.72c-0.41,0.29-0.97,0.19-1.26-0.21c-0.29-0.41-0.19-0.97,0.21-1.26c1.35-0.96,2.73-1.44,4.15-1.45 c1.41-0.01,2.82,0.47,4.23,1.44c0.41,0.28,0.51,0.85,0.23,1.26c-0.28,0.41-0.85,0.52-1.26,0.23c-1.1-0.76-2.16-1.13-3.2-1.12 C65.96,34.6,64.92,34.98,63.88,35.72L63.88,35.72L63.88,35.72z"/></g></svg>