<?xml version="1.0" encoding="utf-8"?><svg version="1.1" id="Layer_1" xmlns="http://www.w3.org/2000/svg" xmlns:xlink="http://www.w3.org/1999/xlink" x="0px" y="0px" viewBox="0 0 115.09 122.88" style="enable-background:new 0 0 115.09 122.88" xml:space="preserve"><style type="text/css">.st0{fill-rule:evenodd;clip-rule:evenodd;}</style><g><path class="st0" d="M66.76,109.51c-21.15-0.12-43.43-0.43-60.99-0.13c-8.35,0.14-6.4-6.29-1.93-12.35 c7.38-9.98,17.1-13.68,28.02-17.81c0.86-0.77,1.96-1.7,3.12-2.69c2.03-1.72,4.25-3.6,5.55-4.93l0.01-0.01l-0.07-0.06 c-1.96-1.77-3.73-3.94-5.34-6.49c-1.48-2.35-2.82-5.02-4.03-7.97c-0.53-0.16-1.04-0.35-1.52-0.58c-0.69-0.32-1.31-0.7-1.88-1.14 c-1.68-1.28-2.78-3.03-3.43-4.95c-0.72-2.15-0.85-4.52-0.56-6.7c0.15-1.12,0.46-2.1,0.93-2.92c0.5-0.87,1.16-1.57,1.99-2.1 c0.24-0.15,0.52-0.22,0.78-0.2c-0.47-2.41-0.39-4.73-0.3-7.43c0.08-2.13,0.29-4.13,0.71-6.02v-8.99c0-19.77,50.49-23.6,51.57,1.68 c0.25,5.84,0.66,11.47,0.6,17.03c-0.02,1.35-0.24,2.73-0.7,4.13c-0.02,0.14-0.05,0.29-0.09,0.46c1.02,0.64,1.81,1.42,2.4,2.31 c0.87,1.32,1.25,2.85,1.16,4.46c-0.09,1.55-0.62,3.17-1.58,4.75c-1.11,1.84-2.82,3.64-5.09,5.19c-1.98,4.63-4.76,9.26-8.11,12.98 c-0.71,0.79-1.46,1.54-2.22,2.24c0.1,0.08,0.19,0.17,0.27,0.28c0.77,1.17,3.59,3.64,6.07,5.82l0.34,0.29 c4.52-3.94,10.43-6.32,16.9-6.32c7.11,0,13.55,2.88,18.21,7.54c4.66,4.66,7.54,11.1,7.54,18.21s-2.88,13.55-7.54,18.21 c-4.66,4.66-11.1,7.54-18.21,7.54s-13.55-2.88-18.21-7.54C69.42,113.62,67.94,111.66,66.76,109.51L66.76,109.51z M66.25,85.74 c0.83-1.68,1.84-3.26,3-4.71c0.3-0.77,0.55-1.59,0.75-2.45c-2.44-2.14-5.01-4.44-5.87-5.74c-0.02-0.03-0.04-0.06-0.06-0.1 c-1.79,1.39-3.69,2.5-5.68,3.24c-3.62,1.34-7.52,1.43-11.56-0.26c-1.5-0.63-3.02-1.51-4.55-2.67c-0.04,0.05-0.08,0.1-0.12,0.15 c-1.38,1.42-3.65,3.34-5.71,5.08l-0.55,0.46C35.57,90.54,56.97,95.43,66.25,85.74L66.25,85.74z M90.6,101.38 c0.39-0.19,0.87-0.03,1.06,0.36s0.03,0.87-0.36,1.06c-0.32,0.16-0.65,0.3-0.99,0.43c-0.33,0.12-0.67,0.23-1.02,0.33 c-1.45,0.4-3.05,0.68-4.13,0.31c-1.37-0.48-1.96-1.69-0.81-4.25c0.2-0.43,0.4-0.91,0.56-1.4c0-0.16,0.04-0.31,0.13-0.45 c0.08-0.31,0.12-0.61,0.12-0.9c0-0.72-0.33-1.37-1.37-1.76c-0.29-0.11-0.64-0.1-1.05,0.02c-0.47,0.13-1,0.41-1.58,0.82l-0.69,1.16 c-0.22,0.38-0.71,0.5-1.09,0.28c-0.38-0.22-0.5-0.71-0.28-1.09l0.32-0.54c-0.11-0.02-0.21-0.02-0.31-0.01 c-0.4,0.03-0.68,0.19-0.85,0.41c-0.15,0.2-0.23,0.45-0.24,0.74c-0.01,0.33,0.06,0.69,0.22,1.06c0.32,0.72,0.99,1.41,2.02,1.8 c0.1-0.23,0.21-0.45,0.33-0.67c0.3-0.53,0.65-1.04,1.02-1.48c0.28-0.34,0.77-0.39,1.11-0.11c0.34,0.28,0.39,0.77,0.12,1.11 c-0.31,0.38-0.61,0.81-0.86,1.25c-0.18,0.32-0.32,0.65-0.42,0.97c0,0.03-0.01,0.06-0.01,0.09c-0.37,2.75-0.04,4.68,0.95,5.88 c0.97,1.18,2.62,1.72,4.92,1.7v0c1.45-0.12,2.76-0.39,3.93-0.8c1.15-0.4,2.18-0.95,3.08-1.64c1.14-0.87,2.31-2.13,3.03-3.52 c0.56-1.08,0.84-2.23,0.62-3.34c0-0.02-0.01-0.05-0.01-0.07l-0.05-0.26c-0.25-1.23-0.35-1.72-0.2-2.22c0.11-0.38,0.3-0.58,0.6-0.91 c0.23-0.25,0.56-0.6,0.99-1.22c0.32-0.47,0.58-0.92,0.78-1.35c0.19-0.42,0.32-0.83,0.38-1.23c0.26-1.54-0.08-2.91-0.79-3.94 c-0.38-0.55-0.86-1.01-1.4-1.37c-0.55-0.35-1.16-0.59-1.81-0.7c-1.19-0.2-2.5,0.04-3.71,0.87c-0.59,0.4-1.01,0.88-1.3,1.45 c-0.3,0.59-0.48,1.29-0.58,2.12c-0.11,0.98-0.18,1.97-0.06,2.89c0.06,0.49,0.17,0.97,0.36,1.42c0.03,0.04,0.05,0.09,0.08,0.14 c0.02,0.05,0.04,0.09,0.05,0.14c0.13,0.26,0.28,0.52,0.46,0.76c0.17,0.24,0.34,0.39,0.51,0.47c0.13,0.06,0.28,0.07,0.43,0.04 c0.43-0.09,0.85,0.18,0.94,0.6c0.09,0.4-0.15,0.8-0.53,0.92l0,0c-0.86,0.28-1.65,0.6-2.37,0.97c-0.69,0.37-1.3,0.78-1.8,1.26 c-0.32,0.3-0.82,0.29-1.12-0.02c-0.3-0.32-0.29-0.82,0.02-1.12c0.62-0.59,1.35-1.09,2.16-1.52c0.23-0.12,0.47-0.24,0.72-0.35 c-0.09-0.1-0.17-0.2-0.26-0.31c-0.12-0.16-0.23-0.33-0.33-0.49c-0.63,0.29-1.24,0.61-1.82,0.96c-0.7,0.42-1.36,0.9-1.97,1.46 c-0.18,0.6-0.43,1.18-0.66,1.69c-0.62,1.38-0.54,1.96-0.12,2.1c0.7,0.25,1.99-0.01,3.19-0.34c0.3-0.08,0.59-0.18,0.88-0.29 C90.04,101.64,90.32,101.51,90.6,101.38L90.6,101.38L90.6,101.38z M89.61,94.7c-0.12-0.41-0.21-0.84-0.26-1.26 c-0.14-1.09-0.07-2.19,0.05-3.27c0.12-1,0.34-1.88,0.74-2.66c0.41-0.8,1-1.48,1.82-2.04c1.57-1.07,3.29-1.39,4.87-1.12 c0.86,0.15,1.68,0.47,2.41,0.93c0.73,0.47,1.36,1.08,1.86,1.81c0.93,1.36,1.38,3.12,1.04,5.1c-0.09,0.53-0.26,1.07-0.5,1.62 c-0.24,0.53-0.54,1.06-0.92,1.61c-0.5,0.72-0.87,1.12-1.12,1.39c-0.15,0.16-0.24,0.26-0.25,0.29c-0.04,0.12,0.04,0.5,0.23,1.46 l0.05,0.26c0.01,0.02,0.01,0.05,0.02,0.07c0.3,1.49-0.06,3-0.77,4.37c-0.83,1.62-2.17,3.06-3.48,4.06 c-1.03,0.79-2.2,1.41-3.52,1.87c-1.3,0.46-2.74,0.75-4.32,0.88l0,0c-0.02,0-0.04,0-0.06,0c-2.83,0.03-4.92-0.7-6.22-2.28 c-1.2-1.46-1.67-3.59-1.37-6.49l-0.08-0.03l0,0c-1.52-0.54-2.53-1.58-3.02-2.67c-0.27-0.59-0.38-1.2-0.36-1.77 c0.03-0.61,0.22-1.18,0.57-1.64c0.44-0.57,1.1-0.95,1.98-1.03c0.35-0.03,0.7,0.01,1.05,0.1c0.17,0.05,0.35,0.1,0.52,0.17 c0.62-0.4,1.21-0.69,1.75-0.84c0.74-0.21,1.41-0.2,2.03,0.03c1.24,0.46,1.9,1.17,2.2,2c-0.24-2.55-1.36-3.04-2.58-3.57 c-1.9-0.83-3.98-1.73-4.56-6.98c-0.05-0.44,0.27-0.83,0.7-0.88c0.44-0.05,0.83,0.27,0.88,0.7c0.48,4.34,2.12,5.05,3.62,5.7 c1.69,0.74,3.23,1.41,3.53,4.85C88.62,95.18,89.11,94.93,89.61,94.7L89.61,94.7L89.61,94.7z M104.3,82.18 c-3.83-3.83-9.12-6.19-14.96-6.19c-5.84,0-11.13,2.37-14.96,6.19c-3.83,3.83-6.19,9.12-6.19,14.96c0,5.84,2.37,11.13,6.19,14.96 c3.83,3.83,9.12,6.19,14.96,6.19c5.84,0,11.13-2.37,14.96-6.19c3.83-3.83,6.19-9.12,6.19-14.96C110.49,91.29,108.13,86,104.3,82.18 L104.3,82.18z M51.96,8.15h3.13c0.59,0,1.06,0.48,1.06,1.06v4.67l4.67,0c0.59,0,1.06,0.48,1.06,1.06v3.13 c0,0.59-0.48,1.06-1.06,1.06h-4.67v4.67c0,0.59-0.48,1.06-1.06,1.06h-3.13c-0.59,0-1.06-0.48-1.06-1.06v-4.67h-4.67 c-0.59,0-1.06-0.48-1.06-1.06v-3.13c0-0.59,0.48-1.06,1.06-1.06h4.67V9.21C50.9,8.63,51.38,8.15,51.96,8.15L51.96,8.15L51.96,8.15z M37.33,42.89c-0.38,0.27-0.91,0.18-1.18-0.2c-0.27-0.38-0.18-0.91,0.2-1.18c1.59-1.13,3.22-1.71,4.89-1.71 c1.66-0.01,3.33,0.56,4.99,1.71c0.38,0.27,0.48,0.79,0.22,1.18c-0.27,0.38-0.79,0.48-1.18,0.22c-1.38-0.95-2.72-1.42-4.03-1.41 C39.93,41.49,38.63,41.96,37.33,42.89L37.33,42.89z M61.1,42.89c-0.38,0.27-0.91,0.18-1.18-0.2c-0.27-0.38-0.18-0.91,0.2-1.18 c1.59-1.13,3.22-1.71,4.89-1.71c1.66-0.01,3.33,0.56,4.99,1.71c0.38,0.27,0.48,0.79,0.22,1.18c-0.27,0.38-0.79,0.48-1.18,0.22 c-1.38-0.95-2.72-1.42-4.03-1.41C63.71,41.49,62.41,41.96,61.1,42.89L61.1,42.89z M38.06,47.79c-0.39-0.26-0.49-0.79-0.23-1.17 c0.26-0.39,0.79-0.49,1.17-0.23c0.66,0.44,1.76,0.69,2.93,0.68c1.09-0.01,2.23-0.24,3.11-0.75c0.4-0.23,0.92-0.1,1.16,0.31 c0.23,0.4,0.1,0.92-0.31,1.16c-1.14,0.67-2.58,0.97-3.95,0.98C40.44,48.77,38.99,48.42,38.06,47.79L38.06,47.79z M60.34,47.79 c-0.39-0.26-0.49-0.79-0.23-1.17c0.26-0.39,0.79-0.49,1.17-0.23c0.65,0.43,1.74,0.66,2.88,0.64c1.08-0.02,2.18-0.26,2.97-0.77 c0.39-0.25,0.92-0.13,1.17,0.26c0.25,0.39,0.14,0.92-0.26,1.17c-1.07,0.68-2.49,1.01-3.85,1.03 C62.72,48.74,61.27,48.41,60.34,47.79L60.34,47.79z M49.11,63.35c-0.16-0.44,0.08-0.93,0.52-1.08c0.44-0.16,0.93,0.08,1.08,0.52 c0.12,0.34,0.45,0.61,0.88,0.79c0.4,0.17,0.88,0.26,1.37,0.27c0.49,0.01,0.98-0.06,1.42-0.21c0.52-0.18,0.94-0.48,1.11-0.9 c0.18-0.43,0.68-0.63,1.11-0.45c0.43,0.18,0.63,0.68,0.45,1.11c-0.38,0.9-1.17,1.51-2.11,1.84c-0.63,0.22-1.33,0.32-2.02,0.3 c-0.69-0.02-1.39-0.15-1.98-0.41C50.08,64.77,49.41,64.18,49.11,63.35L49.11,63.35z M78.32,41.85c-0.97,2.19-2.58,5.07-4.68,7.94 v-13.1c-3.64-1.68-6.51-4.59-8.66-8.66h-7.53c-7.18,7.92-20.89,8.04-25.05,10.5v10.22c-1.02-1.44-1.94-2.91-2.77-4.4 c-0.69-1.25-1.21-2.41-1.59-3.52l-0.03,0.02c-0.47,0.3-0.85,0.7-1.14,1.21c-0.31,0.54-0.52,1.21-0.62,2 c-0.24,1.83-0.14,3.79,0.45,5.55c0.49,1.46,1.31,2.78,2.55,3.73c0.44,0.33,0.91,0.62,1.41,0.86c0.52,0.24,1.08,0.44,1.68,0.58 c0.42,0.1,0.74,0.4,0.89,0.77l0,0c1.22,3.04,2.57,5.77,4.06,8.15c1.48,2.34,3.1,4.33,4.88,5.95c1.91,1.73,3.79,2.94,5.63,3.71 c3.39,1.42,6.66,1.34,9.69,0.22c3.12-1.15,6.02-3.39,8.58-6.22c3.23-3.58,5.91-8.1,7.8-12.61c0.12-0.28,0.32-0.5,0.57-0.63 c2.06-1.37,3.59-2.94,4.55-4.54c0.73-1.21,1.14-2.43,1.21-3.57c0.06-1.07-0.18-2.07-0.74-2.92C79.18,42.63,78.8,42.22,78.32,41.85 L78.32,41.85z"/></g></svg>